<mxfile host="app.diagrams.net" modified="2021-09-20T08:53:31.581Z" agent="5.0 (Windows NT 10.0; Win64; x64) AppleWebKit/537.36 (KHTML, like Gecko) Chrome/93.0.4577.82 Safari/537.36 Edg/93.0.961.52" etag="k9NN3C4eLMzNqPOk2YW_" version="15.2.9" type="gitlab">
  <diagram id="DwC4AQUkQDPG6qMaaU28" name="Page-1">
    <mxGraphModel dx="1374" dy="786" grid="1" gridSize="10" guides="1" tooltips="1" connect="1" arrows="1" fold="1" page="1" pageScale="1" pageWidth="850" pageHeight="1100" math="0" shadow="0">
      <root>
        <mxCell id="0" />
        <mxCell id="1" parent="0" />
        <mxCell id="YU6FAGFtOElAnL_mcQNl-2" style="edgeStyle=orthogonalEdgeStyle;rounded=0;orthogonalLoop=1;jettySize=auto;html=1;entryX=0;entryY=0.5;entryDx=0;entryDy=0;" edge="1" parent="1" source="YU6FAGFtOElAnL_mcQNl-1" target="YU6FAGFtOElAnL_mcQNl-3">
          <mxGeometry relative="1" as="geometry">
            <mxPoint x="220" y="110" as="targetPoint" />
          </mxGeometry>
        </mxCell>
        <mxCell id="YU6FAGFtOElAnL_mcQNl-1" value="Code&lt;br&gt;Input" style="shape=manualInput;whiteSpace=wrap;html=1;fillColor=#ffe6cc;strokeColor=#d79b00;" vertex="1" parent="1">
          <mxGeometry x="60" y="70" width="80" height="80" as="geometry" />
        </mxCell>
        <mxCell id="YU6FAGFtOElAnL_mcQNl-7" value="" style="edgeStyle=orthogonalEdgeStyle;rounded=0;orthogonalLoop=1;jettySize=auto;html=1;entryX=0;entryY=0.5;entryDx=0;entryDy=0;entryPerimeter=0;" edge="1" parent="1" source="YU6FAGFtOElAnL_mcQNl-3" target="YU6FAGFtOElAnL_mcQNl-8">
          <mxGeometry relative="1" as="geometry">
            <mxPoint x="405" y="110" as="targetPoint" />
          </mxGeometry>
        </mxCell>
        <mxCell id="YU6FAGFtOElAnL_mcQNl-3" value="Lexer" style="rounded=1;whiteSpace=wrap;html=1;fillColor=#f8cecc;strokeColor=#b85450;" vertex="1" parent="1">
          <mxGeometry x="220" y="80" width="110" height="60" as="geometry" />
        </mxCell>
        <mxCell id="YU6FAGFtOElAnL_mcQNl-4" value="Flag&lt;br&gt;Input" style="shape=manualInput;whiteSpace=wrap;html=1;fillColor=#ffe6cc;strokeColor=#d79b00;" vertex="1" parent="1">
          <mxGeometry x="60" y="200" width="80" height="80" as="geometry" />
        </mxCell>
        <mxCell id="YU6FAGFtOElAnL_mcQNl-13" value="" style="edgeStyle=orthogonalEdgeStyle;curved=1;rounded=0;orthogonalLoop=1;jettySize=auto;html=1;" edge="1" parent="1" source="YU6FAGFtOElAnL_mcQNl-8" target="YU6FAGFtOElAnL_mcQNl-12">
          <mxGeometry relative="1" as="geometry" />
        </mxCell>
        <mxCell id="YU6FAGFtOElAnL_mcQNl-8" value="Tokens" style="shape=mxgraph.bpmn.data;labelPosition=center;verticalLabelPosition=bottom;align=center;verticalAlign=top;whiteSpace=wrap;size=15;html=1;bpmnTransferType=output;fillColor=#d5e8d4;strokeColor=#82b366;" vertex="1" parent="1">
          <mxGeometry x="410" y="80" width="40" height="60" as="geometry" />
        </mxCell>
        <mxCell id="YU6FAGFtOElAnL_mcQNl-15" value="" style="edgeStyle=orthogonalEdgeStyle;curved=1;rounded=0;orthogonalLoop=1;jettySize=auto;html=1;" edge="1" parent="1" source="YU6FAGFtOElAnL_mcQNl-12" target="YU6FAGFtOElAnL_mcQNl-14">
          <mxGeometry relative="1" as="geometry" />
        </mxCell>
        <mxCell id="YU6FAGFtOElAnL_mcQNl-12" value="&lt;br&gt;Parser" style="whiteSpace=wrap;html=1;verticalAlign=top;strokeColor=#b85450;fillColor=#f8cecc;rounded=1;glass=0;shadow=0;sketch=0;" vertex="1" parent="1">
          <mxGeometry x="470" y="210" width="120" height="60" as="geometry" />
        </mxCell>
        <mxCell id="YU6FAGFtOElAnL_mcQNl-16" style="edgeStyle=orthogonalEdgeStyle;curved=1;rounded=0;orthogonalLoop=1;jettySize=auto;html=1;entryX=0.5;entryY=0;entryDx=0;entryDy=0;" edge="1" parent="1" source="YU6FAGFtOElAnL_mcQNl-14" target="YU6FAGFtOElAnL_mcQNl-17">
          <mxGeometry relative="1" as="geometry">
            <mxPoint x="780" y="370" as="targetPoint" />
          </mxGeometry>
        </mxCell>
        <mxCell id="YU6FAGFtOElAnL_mcQNl-14" value="Parse Tree" style="shape=mxgraph.bpmn.data;labelPosition=center;verticalLabelPosition=bottom;align=center;verticalAlign=top;whiteSpace=wrap;size=15;html=1;bpmnTransferType=output;fillColor=#d5e8d4;strokeColor=#82b366;" vertex="1" parent="1">
          <mxGeometry x="670" y="210" width="40" height="60" as="geometry" />
        </mxCell>
        <mxCell id="YU6FAGFtOElAnL_mcQNl-20" value="" style="edgeStyle=orthogonalEdgeStyle;curved=1;rounded=0;orthogonalLoop=1;jettySize=auto;html=1;" edge="1" parent="1" source="YU6FAGFtOElAnL_mcQNl-17" target="YU6FAGFtOElAnL_mcQNl-19">
          <mxGeometry relative="1" as="geometry" />
        </mxCell>
        <mxCell id="YU6FAGFtOElAnL_mcQNl-17" value="&lt;br&gt;Visitor" style="whiteSpace=wrap;html=1;verticalAlign=top;strokeColor=#b85450;fillColor=#f8cecc;rounded=1;glass=0;shadow=0;sketch=0;" vertex="1" parent="1">
          <mxGeometry x="720" y="380" width="120" height="60" as="geometry" />
        </mxCell>
        <mxCell id="YU6FAGFtOElAnL_mcQNl-22" style="edgeStyle=orthogonalEdgeStyle;curved=1;rounded=0;orthogonalLoop=1;jettySize=auto;html=1;entryX=1;entryY=0.5;entryDx=0;entryDy=0;" edge="1" parent="1" source="YU6FAGFtOElAnL_mcQNl-19" target="YU6FAGFtOElAnL_mcQNl-21">
          <mxGeometry relative="1" as="geometry" />
        </mxCell>
        <mxCell id="YU6FAGFtOElAnL_mcQNl-19" value="AST - Syntax Tree" style="shape=mxgraph.bpmn.data;labelPosition=center;verticalLabelPosition=bottom;align=center;verticalAlign=top;whiteSpace=wrap;size=15;html=1;bpmnTransferType=output;fillColor=#d5e8d4;strokeColor=#82b366;direction=east;flipH=1;" vertex="1" parent="1">
          <mxGeometry x="630" y="380" width="40" height="60" as="geometry" />
        </mxCell>
        <mxCell id="YU6FAGFtOElAnL_mcQNl-24" value="" style="edgeStyle=orthogonalEdgeStyle;curved=1;rounded=0;orthogonalLoop=1;jettySize=auto;html=1;" edge="1" parent="1" source="YU6FAGFtOElAnL_mcQNl-21" target="YU6FAGFtOElAnL_mcQNl-23">
          <mxGeometry relative="1" as="geometry" />
        </mxCell>
        <mxCell id="YU6FAGFtOElAnL_mcQNl-21" value="&lt;h2 style=&quot;box-sizing: inherit ; padding: 0px ; margin: 0px 0px 0.5em ; line-height: 40px ; color: rgb(34 , 34 , 34)&quot;&gt;&lt;span style=&quot;font-size: 12px ; font-weight: normal ; line-height: 123%&quot;&gt;Intermediate Code Generation&lt;/span&gt;&lt;br&gt;&lt;/h2&gt;" style="whiteSpace=wrap;html=1;verticalAlign=top;strokeColor=#b85450;fillColor=#f8cecc;rounded=1;glass=0;shadow=0;sketch=0;" vertex="1" parent="1">
          <mxGeometry x="410" y="370" width="120" height="80" as="geometry" />
        </mxCell>
        <mxCell id="YU6FAGFtOElAnL_mcQNl-23" value="Assembly Code" style="shape=mxgraph.bpmn.data;labelPosition=center;verticalLabelPosition=bottom;align=center;verticalAlign=top;whiteSpace=wrap;size=15;html=1;bpmnTransferType=output;fillColor=#d5e8d4;strokeColor=#82b366;direction=east;flipH=1;" vertex="1" parent="1">
          <mxGeometry x="300" y="380" width="40" height="60" as="geometry" />
        </mxCell>
        <mxCell id="YU6FAGFtOElAnL_mcQNl-27" style="edgeStyle=orthogonalEdgeStyle;rounded=0;orthogonalLoop=1;jettySize=auto;html=1;entryX=0.5;entryY=1;entryDx=0;entryDy=0;fillColor=#e1d5e7;strokeColor=#9673a6;curved=1;strokeWidth=3;endArrow=oval;endFill=1;" edge="1" parent="1" source="YU6FAGFtOElAnL_mcQNl-25" target="YU6FAGFtOElAnL_mcQNl-21">
          <mxGeometry relative="1" as="geometry" />
        </mxCell>
        <mxCell id="YU6FAGFtOElAnL_mcQNl-28" style="edgeStyle=orthogonalEdgeStyle;rounded=0;orthogonalLoop=1;jettySize=auto;html=1;entryX=0.5;entryY=1;entryDx=0;entryDy=0;fillColor=#e1d5e7;strokeColor=#9673a6;curved=1;strokeWidth=3;endArrow=oval;endFill=1;" edge="1" parent="1" source="YU6FAGFtOElAnL_mcQNl-25" target="YU6FAGFtOElAnL_mcQNl-17">
          <mxGeometry relative="1" as="geometry" />
        </mxCell>
        <mxCell id="YU6FAGFtOElAnL_mcQNl-29" style="edgeStyle=orthogonalEdgeStyle;rounded=0;orthogonalLoop=1;jettySize=auto;html=1;entryX=0.5;entryY=1;entryDx=0;entryDy=0;fillColor=#e1d5e7;strokeColor=#9673a6;curved=1;strokeWidth=3;endArrow=oval;endFill=1;" edge="1" parent="1" source="YU6FAGFtOElAnL_mcQNl-25" target="YU6FAGFtOElAnL_mcQNl-12">
          <mxGeometry relative="1" as="geometry" />
        </mxCell>
        <mxCell id="YU6FAGFtOElAnL_mcQNl-25" value="Symbol Table" style="strokeWidth=2;html=1;shape=mxgraph.flowchart.database;whiteSpace=wrap;rounded=1;shadow=0;glass=0;sketch=0;fillColor=#fff2cc;strokeColor=#d6b656;" vertex="1" parent="1">
          <mxGeometry x="600" y="590" width="80" height="70" as="geometry" />
        </mxCell>
      </root>
    </mxGraphModel>
  </diagram>
</mxfile>
